<svg width="223" height="83" viewBox="0 0 223 83" fill="none" xmlns="http://www.w3.org/2000/svg">
<rect width="223" height="83" rx="8" fill="black"/>
<path d="M38.8919 29.984C40.2572 29.984 41.4732 30.304 42.5399 30.944C43.6065 31.5627 44.4385 32.4267 45.0359 33.536C45.6332 34.624 45.9319 35.8507 45.9319 37.216V37.632C45.9319 38.9973 45.6332 40.2347 45.0359 41.344C44.4385 42.4533 43.6065 43.328 42.5399 43.968C41.4732 44.5867 40.2572 44.896 38.8919 44.896H33.6119V52H26.5399V29.984H38.8919ZM33.6119 39.744H36.5239C37.2705 39.744 37.8252 39.552 38.1879 39.168C38.5719 38.784 38.7639 38.2613 38.7639 37.6V37.344C38.7639 36.6613 38.5719 36.1387 38.1879 35.776C37.8252 35.392 37.2705 35.2 36.5239 35.2H33.6119V39.744ZM49.4096 52V28.8H55.7776V52H49.4096ZM68.1939 34.72C70.7752 34.72 72.8765 35.1573 74.4979 36.032C76.1192 36.8853 76.9299 38.2827 76.9299 40.224V46.816C76.9299 47.1787 77.0152 47.4773 77.1859 47.712C77.3565 47.9467 77.6125 48.064 77.9539 48.064H79.1059V51.744C79.0419 51.7867 78.8712 51.8613 78.5939 51.968C78.3379 52.0533 77.9645 52.1387 77.4739 52.224C76.9832 52.3307 76.4179 52.384 75.7779 52.384C74.5405 52.384 73.5165 52.2027 72.7059 51.84C71.9165 51.456 71.3725 50.9333 71.0739 50.272C70.2632 50.912 69.3565 51.424 68.3539 51.808C67.3512 52.192 66.1779 52.384 64.8339 52.384C60.8659 52.384 58.8819 50.8053 58.8819 47.648C58.8819 46.0053 59.3192 44.7573 60.1939 43.904C61.0899 43.0293 62.3699 42.432 64.0339 42.112C65.6979 41.792 67.8739 41.632 70.5619 41.632V40.8C70.5619 40.1387 70.3272 39.6373 69.8579 39.296C69.4099 38.9547 68.8232 38.784 68.0979 38.784C67.4365 38.784 66.8605 38.9013 66.3699 39.136C65.9005 39.3707 65.6659 39.744 65.6659 40.256V40.384H59.3939C59.3725 40.2773 59.3619 40.128 59.3619 39.936C59.3619 38.336 60.1192 37.0667 61.6339 36.128C63.1699 35.1893 65.3565 34.72 68.1939 34.72ZM70.5619 44.64C68.7485 44.64 67.4045 44.8427 66.5299 45.248C65.6765 45.632 65.2499 46.1547 65.2499 46.816C65.2499 47.8827 65.9752 48.416 67.4259 48.416C68.2579 48.416 68.9832 48.192 69.6019 47.744C70.2419 47.296 70.5619 46.7413 70.5619 46.08V44.64ZM92.8016 51.488C91.927 53.856 90.8496 55.648 89.5696 56.864C88.311 58.1013 86.5403 58.72 84.2576 58.72C82.871 58.72 81.6443 58.528 80.5776 58.144V54.336H83.1376C84.7376 54.336 85.687 53.5573 85.9856 52L79.2656 35.104H86.1136L89.3456 46.336H89.5696L92.5456 35.104H98.8176L92.8016 51.488Z" fill="white"/>
<rect x="107" y="16" width="92" height="51" rx="8" fill="#FF9000"/>
<path d="M135.544 52V43.648H127.768V52H120.696V29.984H127.768V38.016H135.544V29.984H142.616V52H135.544ZM159.16 52L158.744 49.44C158.083 50.3573 157.208 51.0827 156.12 51.616C155.054 52.128 153.923 52.384 152.728 52.384C150.766 52.384 149.294 51.84 148.312 50.752C147.331 49.664 146.84 48.096 146.84 46.048V35.104H153.208V45.28C153.208 46.0053 153.39 46.592 153.752 47.04C154.136 47.4667 154.67 47.68 155.352 47.68C156.142 47.68 156.782 47.424 157.272 46.912C157.763 46.4 158.008 45.7707 158.008 45.024V35.104H164.376V52H159.16ZM174.648 36.672C175.864 35.3707 177.443 34.72 179.384 34.72C181.667 34.72 183.427 35.4667 184.664 36.96C185.901 38.432 186.52 40.6187 186.52 43.52C186.52 46.4427 185.901 48.6507 184.664 50.144C183.427 51.6373 181.667 52.384 179.384 52.384C177.037 52.384 175.245 51.456 174.008 49.6L173.464 52H168.28V28.8H174.648V36.672ZM177.4 39.424C176.461 39.424 175.757 39.7653 175.288 40.448C174.819 41.1093 174.584 41.9733 174.584 43.04V44.096C174.584 45.1627 174.819 46.0267 175.288 46.688C175.757 47.3493 176.461 47.68 177.4 47.68C179.235 47.68 180.152 46.592 180.152 44.416V42.72C180.152 40.5227 179.235 39.424 177.4 39.424Z" fill="black"/>
</svg>
