<svg width="64" height="64" viewBox="0 0 64 64" fill="none" xmlns="http://www.w3.org/2000/svg">
    <rect width="64" height="64" rx="32" fill="url(#paint0_linear_3_88)" />
    <path
        d="M36 38L44.14 46.568C44.8255 47.2893 45.7264 47.7689 46.7076 47.9347C47.6888 48.1006 48.6973 47.9438 49.5818 47.488C50.4664 47.0321 51.1792 46.3016 51.6134 45.4062C52.0476 44.5109 52.1797 43.4988 51.99 42.522L48.79 26.058M24 26V30M22 28H26M36 28H40M39 18C41.6522 18 44.1957 19.0536 46.0711 20.9289C47.9464 22.8043 49 25.3478 49 28C49 30.6522 47.9464 33.1957 46.0711 35.0711C44.1957 36.9464 41.6522 38 39 38H28L19.97 46.454C19.2831 47.1772 18.3798 47.6575 17.3962 47.8226C16.4125 47.9877 15.4019 47.8287 14.5165 47.3694C13.6312 46.9101 12.919 46.1755 12.4875 45.2763C12.056 44.3771 11.9284 43.362 12.124 42.384L15.392 26.038C15.8456 23.7709 17.0708 21.7311 18.859 20.2656C20.6472 18.8001 22.888 17.9995 25.2 18H39Z"
        stroke="white" stroke-width="4" stroke-linecap="round" stroke-linejoin="round" />
    <defs>
        <linearGradient id="paint0_linear_3_88" x1="32" y1="0" x2="32" y2="64"
            gradientUnits="userSpaceOnUse">
            <stop offset="0.350962" stop-color="#FF9000" />
            <stop offset="1" stop-color="#995600" />
        </linearGradient>
    </defs>
</svg>